PathFileType	4	(X/Y/Z)	RBDS026static.trc
DataRate	CameraRate	NumFrames	NumMarkers	Units	OrigDataRate	OrigDataStartFrame	OrigNumFrames
150.000000	150.000000	4	48	mm	150.000000	0	150
Frame#	Time	L.Ankle			L.Ankle.Medial			L.ASIS			L.GTR			L.Heel.Bottom			L.Heel.Lateral			L.Heel.Top			L.HF			L.Iliac.Crest			L.Knee			L.Knee.Medial			L.MT1			L.MT2			L.MT5			L.PSIS			L.Shank.Bottom.Lateral			L.Shank.Bottom.Medial			L.Shank.Top.Lateral			L.Shank.Top.Medial			L.Thigh.Bottom.Lateral			L.Thigh.Bottom.Medial			L.Thigh.Top.Lateral			L.Thigh.Top.Medial			L.TT			R.Ankle			R.Ankle.Medial			R.ASIS			R.GTR			R.Heel.Bottom			R.Heel.Lateral			R.Heel.Top			R.HF			R.Iliac.Crest			R.Knee			R.Knee.Medial			R.MT1			R.MT2			R.MT5			R.PSIS			R.Shank.Bottom.Lateral			R.Shank.Bottom.Medial			R.Shank.Top.Lateral			R.Shank.Top.Medial			R.Thigh.Bottom.Lateral			R.Thigh.Bottom.Medial			R.Thigh.Top.Lateral			R.Thigh.Top.Medial			R.TT			
		X1	Y1	Z1	X2	Y2	Z2	X3	Y3	Z3	X4	Y4	Z4	X5	Y5	Z5	X6	Y6	Z6	X7	Y7	Z7	X8	Y8	Z8	X9	Y9	Z9	X10	Y10	Z10	X11	Y11	Z11	X12	Y12	Z12	X13	Y13	Z13	X14	Y14	Z14	X15	Y15	Z15	X16	Y16	Z16	X17	Y17	Z17	X18	Y18	Z18	X19	Y19	Z19	X20	Y20	Z20	X21	Y21	Z21	X22	Y22	Z22	X23	Y23	Z23	X24	Y24	Z24	X25	Y25	Z25	X26	Y26	Z26	X27	Y27	Z27	X28	Y28	Z28	X29	Y29	Z29	X30	Y30	Z30	X31	Y31	Z31	X32	Y32	Z32	X33	Y33	Z33	X34	Y34	Z34	X35	Y35	Z35	X36	Y36	Z36	X37	Y37	Z37	X38	Y38	Z38	X39	Y39	Z39	X40	Y40	Z40	X41	Y41	Z41	X42	Y42	Z42	X43	Y43	Z43	X44	Y44	Z44	X45	Y45	Z45	X46	Y46	Z46	X47	Y47	Z47	X48	Y48	Z48	

1	0	708.1323852539063	106.8013229370117	1038.244384765625	735.582275390625	119.2883224487305	1122.660766601563	877.7516479492188	1063.767944335938	1114.653076171875	808.9185791015625	965.8047485351563	1051.905029296875	640.0084228515625	41.14419555664063	1080.99853515625	675.7620849609375	62.70256423950195	1035.887084960938	649.3524169921875	88.6378173828125	1082.282470703125	786.2711791992188	488.8813171386719	1026.373413085938	794.68359375	1138.433349609375	1071.88134765625	803.9493408203125	545.4052124023438	1036.21142578125	791.0443725585938	528.2871704101563	1158.016357421875	864.8125	57.98195648193359	1122.43994140625	868.6578979492188	68.35456848144531	1077.94140625	828.57861328125	50.50315093994141	1012.093505859375	702.9039306640625	1105.955932617188	1185.884033203125	730.9987182617188	186.2660064697266	1029.295532226563	685.7867431640625	194.8301849365234	1051.910400390625	741.3627319335938	264.4468688964844	1011.437377929688	694.0875854492188	277.1776123046875	1033.526123046875	787.7365112304688	666.211669921875	1029.28662109375	726.4283447265625	665.1154174804688	1068.954956054688	780.3593139648438	776.2682495117188	1023.725463867188	724.7845458984375	774.2221069335938	1066.347900390625	841.4044799804688	458.3282165527344	1072.126220703125	709.8384399414063	104.2270355224609	1418.599487304688	735.2636108398438	122.0525970458984	1332.484008789063	875.8589477539063	1068.853271484375	1353.496826171875	805.0172119140625	961.6919555664063	1415.842163085938	639.3544921875	41.93614196777344	1371.21728515625	671.2748413085938	62.35591888427734	1416.609375	647.958740234375	87.94847869873047	1370.743286132813	779.598388671875	485.2071838378906	1442.12158203125	805.195068359375	1131.323974609375	1394.80322265625	797.4923095703125	538.0729370117188	1433.39208984375	801.5746459960938	526.174560546875	1312.28369140625	863.72607421875	60.56655120849609	1332.908325195313	870.4818115234375	71.24622344970703	1379.352416992188	834.90966796875	50.51108932495117	1444.141479492188	705.065673828125	1106.15283203125	1286.446533203125	725.3192138671875	178.8724517822266	1429.313842773438	678.4511108398438	185.7121276855469	1400.236450195313	724.6561279296875	258.2188720703125	1447.301147460938	679.2699584960938	264.1573181152344	1418.150756835938	801.5173950195313	647.3712158203125	1441.204223632813	736.3262329101563	647.40673828125	1409.995849609375	800.153076171875	757.9556884765625	1442.833740234375	737.5673828125	757.3197021484375	1414.029174804688	840.53955078125	458.5673522949219	1392.497680664063	
2	0.006666666666666667	708.1424560546875	106.7912979125977	1038.233276367188	735.5742797851563	119.2835464477539	1122.654663085938	877.6910400390625	1063.781494140625	1114.6591796875	808.8924560546875	965.8056640625	1051.90869140625	639.99853515625	41.13823318481445	1080.989135742188	675.7457885742188	62.70338439941406	1035.880615234375	649.3517456054688	88.63148498535156	1082.279418945313	786.2510986328125	488.875732421875	1026.372314453125	794.667724609375	1138.460327148438	1071.899658203125	803.9412841796875	545.3956909179688	1036.226806640625	791.0267333984375	528.2741088867188	1158.007568359375	864.8136596679688	57.99134826660156	1122.43994140625	868.65087890625	68.35629272460938	1077.9375	828.5877685546875	50.47486114501953	1012.101501464844	702.8648071289063	1105.940795898438	1185.88525390625	730.9905395507813	186.255615234375	1029.290405273438	685.787353515625	194.8228454589844	1051.900756835938	741.3541870117188	264.4429931640625	1011.430236816406	694.0843505859375	277.1732177734375	1033.522705078125	787.7080688476563	666.21435546875	1029.2724609375	726.4133911132813	665.1051635742188	1068.9609375	780.3366088867188	776.2623901367188	1023.722717285156	724.753173828125	774.2113647460938	1066.3427734375	841.397705078125	458.3377990722656	1072.14794921875	709.8320922851563	104.2255859375	1418.592529296875	735.2861328125	122.1357345581055	1332.550048828125	875.8270874023438	1068.860107421875	1353.492065429688	804.9966430664063	961.6847534179688	1415.846313476563	639.361328125	41.92877197265625	1371.211181640625	671.2722778320313	62.35575103759766	1416.595947265625	647.952880859375	87.935791015625	1370.730346679688	779.607666015625	485.2022705078125	1442.129638671875	805.183349609375	1131.323852539063	1394.81640625	797.5092163085938	538.0673828125	1433.397338867188	801.5760498046875	526.170654296875	1312.285766601563	863.7167358398438	60.57355117797852	1332.907104492188	870.486572265625	71.2403564453125	1379.353271484375	834.8936157226563	50.51273727416992	1444.150268554688	705.0264282226563	1106.142944335938	1286.4619140625	725.3162841796875	178.8722686767578	1429.307739257813	678.4573974609375	185.7065734863281	1400.234985351563	724.661376953125	258.2134399414063	1447.296752929688	679.2728881835938	264.1577453613281	1418.158569335938	801.5144653320313	647.3706665039063	1441.197631835938	736.3228149414063	647.3991088867188	1409.992553710938	800.1443481445313	757.9522705078125	1442.836059570313	737.5665283203125	757.3126831054688	1414.051147460938	840.54345703125	458.5732421875	1392.498779296875	
3	0.01333333333333333	708.1361694335938	106.7991256713867	1038.241088867188	735.57421875	119.2817077636719	1122.660888671875	877.6441650390625	1063.786865234375	1114.686645507813	808.8449096679688	965.8112182617188	1051.909912109375	639.9971923828125	41.14444351196289	1080.982666015625	675.7483520507813	62.70590972900391	1035.873779296875	649.3491821289063	88.641357421875	1082.271606445313	786.2332153320313	488.8863830566406	1026.37255859375	794.6342163085938	1138.473876953125	1071.9267578125	803.9174194335938	545.392822265625	1036.229125976563	791.0243530273438	528.27978515625	1158.011108398438	864.81640625	57.98344802856445	1122.439697265625	868.6475830078125	68.35845947265625	1077.931518554688	828.5726318359375	50.49270248413086	1012.088134765625	702.8232421875	1105.935791015625	1185.913208007813	730.998046875	186.258056640625	1029.280639648438	685.7850952148438	194.8193054199219	1051.901977539063	741.356201171875	264.4346618652344	1011.438781738281	694.0836181640625	277.1727600097656	1033.524047851563	787.707275390625	666.2058715820313	1029.270263671875	726.3869018554688	665.1057739257813	1068.967651367188	780.3050537109375	776.262451171875	1023.722961425781	724.7337646484375	774.2064208984375	1066.345092773438	841.5693969726563	458.0696411132813	1071.988403320313	709.8329467773438	104.2283096313477	1418.588134765625	735.2598266601563	122.0323638916016	1332.487426757813	875.7931518554688	1068.871704101563	1353.481811523438	804.9698486328125	961.6812744140625	1415.853271484375	639.353271484375	41.93175506591797	1371.216186523438	671.2715454101563	62.35665512084961	1416.59228515625	647.9600830078125	87.93717193603516	1370.737426757813	779.6141967773438	485.1964721679688	1442.13916015625	805.1597900390625	1131.335205078125	1394.80908203125	797.5096435546875	538.0645751953125	1433.397094726563	801.592529296875	526.1683349609375	1312.294311523438	863.721435546875	60.56114959716797	1332.906616210938	870.4813232421875	71.24646759033203	1379.355102539063	834.9042358398438	50.51184844970703	1444.141357421875	704.9913330078125	1106.138671875	1286.481323242188	725.3113403320313	178.8623962402344	1429.308471679688	678.4508666992188	185.7028045654297	1400.234497070313	724.6588134765625	258.205078125	1447.300415039063	679.2767944335938	264.1596984863281	1418.15234375	801.5200805664063	647.3721923828125	1441.208618164063	736.3296508789063	647.3898315429688	1410.003051757813	800.1384887695313	757.9488525390625	1442.82470703125	737.5620727539063	757.3082275390625	1414.051147460938	840.5399780273438	458.5600280761719	1392.485595703125	
4	0.02	708.1383666992188	106.7983169555664	1038.2294921875	735.5833129882813	119.2701416015625	1122.652099609375	877.6535034179688	1063.807739257813	1114.871215820313	808.8321533203125	965.8136596679688	1051.9072265625	640.0022583007813	41.14363098144531	1080.97900390625	675.7443237304688	62.70497894287109	1035.864990234375	649.346435546875	88.63480377197266	1082.276489257813	786.2261352539063	488.8819580078125	1026.37744140625	794.58349609375	1138.477661132813	1071.933959960938	803.913330078125	545.3847045898438	1036.23876953125	791.0225830078125	528.2653198242188	1158.009155273438	864.8045654296875	57.99170684814453	1122.429931640625	868.64892578125	68.35297393798828	1077.938110351563	828.588623046875	50.48439025878906	1012.090637207031	702.7896728515625	1105.92138671875	1185.925537109375	730.9939575195313	186.25341796875	1029.291870117188	685.7745971679688	194.8156127929688	1051.89599609375	741.3584594726563	264.4318237304688	1011.433166503906	694.0846557617188	277.1683654785156	1033.522338867188	787.6721801757813	666.2024536132813	1029.283325195313	726.3722534179688	665.0997924804688	1068.9755859375	780.2930908203125	776.2529907226563	1023.723571777344	724.7081298828125	774.1935424804688	1066.34130859375	841.57470703125	458.0890197753906	1072.005859375	709.8307495117188	104.2186965942383	1418.584106445313	735.2586059570313	122.0494384765625	1332.5029296875	875.7498168945313	1068.874389648438	1353.490478515625	804.9364624023438	961.6826782226563	1415.860595703125	639.3541870117188	41.92381286621094	1371.221801757813	671.2734985351563	62.34806823730469	1416.608764648438	647.9480590820313	87.94566345214844	1370.744262695313	779.6234130859375	485.18896484375	1442.134521484375	805.1384887695313	1131.329833984375	1394.807006835938	797.51953125	538.056640625	1433.39111328125	801.58740234375	526.165283203125	1312.30224609375	863.7191772460938	60.5638313293457	1332.902587890625	870.4783935546875	71.24417114257813	1379.350952148438	834.8965454101563	50.50935745239258	1444.13818359375	704.9616088867188	1106.122436523438	1286.485961914063	725.3195190429688	178.8585662841797	1429.30712890625	678.4453735351563	185.7040863037109	1400.233520507813	724.6605834960938	258.2081604003906	1447.299682617188	679.2781982421875	264.1525268554688	1418.147216796875	801.525146484375	647.3582153320313	1441.2060546875	736.3317260742188	647.3743286132813	1410.004150390625	800.13134765625	757.9486083984375	1442.828125	737.5525512695313	757.291748046875	1414.052612304688	840.54931640625	458.5653991699219	1392.496704101563	
